<mxfile host="app.diagrams.net" modified="2024-06-07T09:51:02.958Z" agent="Mozilla/5.0 (Windows NT 10.0; Win64; x64; rv:126.0) Gecko/20100101 Firefox/126.0" version="24.5.1" etag="xHAjOptsuvpPgL4rVzID" type="github">
  <diagram name="Страница — 1" id="5qG0FShRegTabBrFr2Fk">
    <mxGraphModel>
      <root>
        <mxCell id="0" />
        <mxCell id="1" parent="0" />
      </root>
    </mxGraphModel>
  </diagram>
</mxfile>
